<svg width="31" height="32" viewBox="0 0 31 32" fill="none" xmlns="http://www.w3.org/2000/svg">
<g clip-path="url(#clip0_1_80)">
<path d="M30.3099 29.0739L27.849 14.3083C27.7513 13.3513 27.3217 12.5309 26.5599 11.8474C25.7982 11.1638 24.9388 10.822 23.9818 10.822H21.9017V8.33173C21.9017 7.39423 21.7406 6.50067 21.4183 5.65106C21.0961 4.80145 20.6469 4.06415 20.0707 3.43915C19.4945 2.81415 18.8011 2.32098 17.9906 1.95966C17.1801 1.59833 16.306 1.41766 15.3685 1.41766C14.1185 1.41766 12.9906 1.73016 11.9847 2.35516C10.9789 2.98016 10.1927 3.82001 9.62634 4.87469C9.05994 5.92938 8.77673 7.08173 8.77673 8.33173V10.822H6.52087C6.20837 10.822 5.89587 10.8659 5.58337 10.9538C5.27087 11.0417 4.97791 11.1589 4.70447 11.3054C4.43103 11.4518 4.17712 11.6325 3.94275 11.8474C3.70837 12.0622 3.5033 12.2966 3.32751 12.5505C3.15173 12.8044 3.00525 13.0778 2.88806 13.3708C2.77087 13.6638 2.69275 13.9567 2.65369 14.2497L0.397827 29.0446C0.300171 29.8259 0.446655 30.4313 0.83728 30.861C1.20837 31.2712 1.73572 31.4763 2.41931 31.4763H27.9955C28.4447 31.4763 28.8158 31.4079 29.1088 31.2712C29.4017 31.1345 29.6361 30.9684 29.8119 30.7731C30.2025 30.3239 30.3685 29.7575 30.3099 29.0739ZM10.6517 8.33173C10.6517 6.92548 11.0961 5.73407 11.9847 4.75751C12.8734 3.78094 14.0013 3.29266 15.3685 3.29266C16.0521 3.29266 16.6869 3.4245 17.2728 3.68817C17.8588 3.95184 18.3519 4.31317 18.7523 4.77216C19.1527 5.23114 19.4652 5.76825 19.6898 6.38348C19.9144 6.99872 20.0267 7.64813 20.0267 8.33173V10.822H10.6517V8.33173ZM28.0834 29.572L2.5365 29.6013C2.30212 29.6013 2.20447 29.4938 2.24353 29.279L4.49939 14.5134C4.53845 14.279 4.61658 14.0495 4.73376 13.8249C4.85095 13.6003 5.00232 13.405 5.18787 13.239C5.37341 13.0729 5.58337 12.9411 5.81775 12.8434C6.05212 12.7458 6.2865 12.697 6.52087 12.697H8.77673V14.8356C8.64001 14.9333 8.51306 15.0358 8.39587 15.1432C8.27869 15.2507 8.18103 15.3727 8.10291 15.5095C8.02478 15.6462 7.9613 15.7975 7.91248 15.9636C7.86365 16.1296 7.83923 16.2907 7.83923 16.447C7.83923 16.9743 8.0199 17.4186 8.38123 17.78C8.74255 18.1413 9.18689 18.322 9.71423 18.322C10.2416 18.322 10.6859 18.1413 11.0472 17.78C11.4086 17.4186 11.5892 16.9743 11.5892 16.447C11.5892 15.7438 11.2767 15.2067 10.6517 14.8356V12.697H20.0267V14.8356C19.4017 15.2067 19.0892 15.7438 19.0892 16.447C19.0892 16.9743 19.2699 17.4186 19.6312 17.78C19.9926 18.1413 20.4369 18.322 20.9642 18.322C21.4916 18.322 21.9359 18.1413 22.2972 17.78C22.6586 17.4186 22.8392 16.9743 22.8392 16.447C22.8392 15.7438 22.5267 15.2067 21.9017 14.8356V12.697H23.9818C24.099 12.697 24.2162 12.7116 24.3334 12.7409C24.4506 12.7702 24.5677 12.8093 24.6849 12.8581C24.8021 12.9069 24.9144 12.9655 25.0219 13.0339C25.1293 13.1022 25.2269 13.1755 25.3148 13.2536C25.4027 13.3317 25.4857 13.4196 25.5638 13.5173C25.642 13.6149 25.7103 13.7224 25.7689 13.8395C25.8275 13.9567 25.8763 14.0739 25.9154 14.1911C25.9545 14.3083 25.9838 14.4352 26.0033 14.572L28.4349 29.3083C28.4545 29.3864 28.4349 29.4499 28.3763 29.4987C28.3177 29.5475 28.2201 29.572 28.0834 29.572Z" fill="#999999"/>
</g>
<defs>
<clipPath id="clip0_1_80">
<rect width="30" height="31" fill="white" transform="matrix(1 0 0 -1 0.339233 31.7565)"/>
</clipPath>
</defs>
</svg>
