<svg width="31" height="32" viewBox="0 0 31 32" fill="none" xmlns="http://www.w3.org/2000/svg">
<g clip-path="url(#clip0_1_68)">
<path d="M1.58379 10.2946L15.4998 17.8825C15.6365 17.9411 15.783 17.9704 15.9393 17.9704C16.0174 17.9704 16.0955 17.9606 16.1736 17.9411C16.2518 17.9216 16.3201 17.902 16.3787 17.8825L30.4705 10.2946C30.8025 10.1188 30.9588 9.83563 30.9393 9.44501C30.9393 9.26923 30.8953 9.10809 30.8074 8.96161C30.7195 8.81512 30.5975 8.70282 30.4412 8.62469L16.5252 1.56415C16.2322 1.42743 15.949 1.42743 15.6756 1.56415L1.61309 8.62469C1.45684 8.70282 1.32989 8.81512 1.23223 8.96161C1.13457 9.10809 1.08575 9.26923 1.08575 9.44501C1.08575 9.83563 1.25176 10.1188 1.58379 10.2946ZM16.0857 3.43915L27.9803 9.5036L15.9393 15.9782L4.04473 9.5036L16.0857 3.43915ZM30.2654 15.5095L27.4822 14.1032L25.49 15.1872L27.8338 16.3884L15.7928 22.863L3.89825 16.3884L6.38848 15.1286L4.39629 14.0446L1.43731 15.5095C1.10528 15.6852 0.934378 15.9636 0.924613 16.3444C0.914847 16.7253 1.07598 17.0036 1.40801 17.1794L15.324 24.7673C15.4803 24.8454 15.6365 24.8845 15.7928 24.8845C15.8709 24.8845 15.9441 24.8747 16.0125 24.8552C16.0809 24.8356 16.1541 24.8063 16.2322 24.7673L30.2947 17.1794C30.6268 17.0036 30.7928 16.7253 30.7928 16.3444C30.7928 15.9636 30.617 15.6852 30.2654 15.5095ZM30.2654 22.072L27.6287 20.7829L25.6365 21.8669L27.8338 22.9509L15.7928 29.4255L3.89825 22.9509L6.2127 21.8962L4.22051 20.8122L1.43731 22.072C1.10528 22.2477 0.934378 22.5261 0.924613 22.9069C0.914847 23.2878 1.07598 23.5661 1.40801 23.7419L15.324 31.3298C15.3826 31.3493 15.4363 31.3688 15.4852 31.3884C15.534 31.4079 15.5828 31.4225 15.6316 31.4323C15.6805 31.4421 15.7342 31.447 15.7928 31.447C15.8709 31.447 15.9441 31.4372 16.0125 31.4177C16.0809 31.3981 16.1541 31.3688 16.2322 31.3298L30.2947 23.7419C30.6268 23.5661 30.7928 23.2878 30.7928 22.9069C30.7928 22.5261 30.617 22.2477 30.2654 22.072Z" fill="#999999"/>
</g>
<defs>
<clipPath id="clip0_1_68">
<rect width="30" height="31" fill="white" transform="matrix(1 0 0 -1 0.93927 31.7565)"/>
</clipPath>
</defs>
</svg>
