<svg width="31" height="32" viewBox="0 0 31 32" fill="none" xmlns="http://www.w3.org/2000/svg">
<g clip-path="url(#clip0_1_74)">
<path d="M15.4292 3.70282L19.4429 12.0817L28.6128 13.4294L21.9917 20.0505L22.1968 21.3688L23.5444 29.279L15.4292 24.9431L7.31395 29.279L8.6616 21.3688L8.86668 20.0505L2.24559 13.4294L11.3862 12.0817L12.0014 10.822L15.4292 3.70282ZM15.4292 1.91571C14.9995 1.91571 14.6089 2.02313 14.2573 2.23798C13.9057 2.45282 13.6421 2.74579 13.4663 3.11688L10.0679 10.1774L2.24559 11.32C1.85496 11.3786 1.5034 11.5349 1.1909 11.7888C0.878401 12.0427 0.653791 12.3649 0.517073 12.7556C0.243635 13.5563 0.419416 14.2692 1.04442 14.8942L6.75731 20.6071L5.43895 28.5466C5.36082 28.9372 5.40477 29.3181 5.57078 29.6891C5.7368 30.0602 5.98582 30.363 6.31785 30.5974C6.37645 30.6364 6.43992 30.6755 6.50828 30.7145C6.57664 30.7536 6.645 30.7878 6.71336 30.8171C6.78172 30.8464 6.85008 30.8708 6.91844 30.8903C6.9868 30.9099 7.05516 30.9294 7.12352 30.9489C7.19188 30.9684 7.26512 30.9782 7.34324 30.9782C7.42137 30.9782 7.49949 30.9782 7.57762 30.9782C7.94871 30.9782 8.29051 30.8903 8.60301 30.7145L15.4292 27.0524L22.2261 30.7145C22.4018 30.8122 22.5776 30.8806 22.7534 30.9196C22.9292 30.9587 23.105 30.9782 23.2807 30.9782C23.7495 30.9782 24.1694 30.8513 24.5405 30.5974C24.8725 30.363 25.1216 30.0602 25.2876 29.6891C25.4536 29.3181 25.4975 28.9372 25.4194 28.5466L24.1011 20.6071L29.8139 14.8942C30.4389 14.2692 30.6147 13.5563 30.3413 12.7556C30.2046 12.3649 29.98 12.0427 29.6675 11.7888C29.355 11.5349 29.0034 11.3786 28.6128 11.32L20.7905 10.1774L17.3921 3.11688C17.353 3.01923 17.3042 2.93134 17.2456 2.85321C17.187 2.77509 17.1235 2.69696 17.0552 2.61884C16.9868 2.54071 16.9136 2.46747 16.8354 2.39911C16.7573 2.33075 16.6743 2.27216 16.5864 2.22333C16.4985 2.1745 16.4106 2.13055 16.3227 2.09149C16.2348 2.05243 16.1421 2.01825 16.0444 1.98895C15.9468 1.95966 15.8442 1.94012 15.7368 1.93036C15.6294 1.92059 15.5268 1.91571 15.4292 1.91571Z" fill="#999999"/>
</g>
<defs>
<clipPath id="clip0_1_74">
<rect width="30" height="31" fill="white" transform="matrix(1 0 0 -1 0.429169 31.7565)"/>
</clipPath>
</defs>
</svg>
